<svg width="25" height="25" viewBox="0 0 25 25" fill="none" xmlns="http://www.w3.org/2000/svg">
<path d="M0.522643 13.7618C-0.174214 13.0649 -0.174214 11.9351 0.522643 11.2382L11.2382 0.522643C11.9351 -0.174214 13.0649 -0.174214 13.7618 0.522643L24.4773 11.2382C25.1742 11.9351 25.1742 13.0649 24.4773 13.7618L13.7618 24.4773C13.0649 25.1742 11.9351 25.1742 11.2382 24.4773L0.522643 13.7618Z" fill="#F6F6F6"/>
<path d="M9.06141 2.7334L7.97632 3.81852L10.7789 6.62112C10.6655 6.86436 10.6022 7.13563 10.6022 7.42169C10.6022 8.23383 11.1125 8.92678 11.8299 9.1974V16.0533C11.1125 16.3239 10.6022 17.0169 10.6022 17.829C10.6022 18.8769 11.4517 19.7263 12.4995 19.7263C13.5474 19.7263 14.3969 18.8769 14.3969 17.829C14.3969 17.0928 13.9775 16.4544 13.3645 16.1399V9.20678L16.0436 11.8858C15.9357 12.1241 15.8757 12.3887 15.8757 12.6672C15.8757 13.7151 16.7252 14.5646 17.773 14.5646C18.8209 14.5646 19.6703 13.7151 19.6703 12.6672C19.6703 11.6194 18.8209 10.7699 17.773 10.7699C17.5694 10.7699 17.3733 10.802 17.1894 10.8613L14.3121 7.9841C14.3672 7.80642 14.3969 7.61749 14.3969 7.42169C14.3969 6.37381 13.5474 5.52435 12.4995 5.52435C12.3037 5.52435 12.1149 5.55402 11.9371 5.6091L9.06141 2.7334Z" fill="#EE513B"/>
</svg>
